<mxfile host="app.diagrams.net" modified="2023-11-30T05:29:57.117Z" agent="Mozilla/5.0 (Windows NT 10.0; Win64; x64; rv:109.0) Gecko/20100101 Firefox/119.0" etag="YTyHagAqhVjGilkGgR-E" version="22.1.4" type="device">
  <diagram name="Page-1" id="2YBvvXClWsGukQMizWep">
    <mxGraphModel dx="4350" dy="2803" grid="1" gridSize="10" guides="1" tooltips="1" connect="1" arrows="1" fold="1" page="1" pageScale="1" pageWidth="850" pageHeight="1100" math="0" shadow="0">
      <root>
        <mxCell id="0" />
        <mxCell id="1" parent="0" />
        <mxCell id="ZtMZNj4k6sN_AE68zlNE-110" value="" style="endArrow=none;dashed=1;html=1;rounded=0;entryX=0.5;entryY=1;entryDx=0;entryDy=0;fillColor=#dae8fc;strokeColor=#6c8ebf;exitX=0.156;exitY=1.002;exitDx=0;exitDy=0;exitPerimeter=0;" edge="1" parent="1" source="ZtMZNj4k6sN_AE68zlNE-77" target="PTGc_cxeWPIYV6TBkI2--2">
          <mxGeometry width="50" height="50" relative="1" as="geometry">
            <mxPoint x="710" y="2092" as="sourcePoint" />
            <mxPoint x="710" y="110" as="targetPoint" />
            <Array as="points" />
          </mxGeometry>
        </mxCell>
        <mxCell id="ZtMZNj4k6sN_AE68zlNE-72" value="" style="endArrow=none;dashed=1;html=1;rounded=0;entryX=0.5;entryY=1;entryDx=0;entryDy=0;fillColor=#dae8fc;strokeColor=#6c8ebf;exitX=0.513;exitY=0.624;exitDx=0;exitDy=0;exitPerimeter=0;" edge="1" parent="1" source="ZtMZNj4k6sN_AE68zlNE-69" target="ZtMZNj4k6sN_AE68zlNE-96">
          <mxGeometry width="50" height="50" relative="1" as="geometry">
            <mxPoint x="300" y="1957" as="sourcePoint" />
            <mxPoint x="490" y="1200.02" as="targetPoint" />
            <Array as="points" />
          </mxGeometry>
        </mxCell>
        <mxCell id="ZtMZNj4k6sN_AE68zlNE-79" value="" style="rounded=0;whiteSpace=wrap;html=1;strokeColor=none;" vertex="1" parent="1">
          <mxGeometry x="-180" y="-50" width="1480" height="2160" as="geometry" />
        </mxCell>
        <mxCell id="ZtMZNj4k6sN_AE68zlNE-73" value="" style="endArrow=none;dashed=1;html=1;rounded=0;entryX=0.5;entryY=1;entryDx=0;entryDy=0;fillColor=#dae8fc;strokeColor=#6c8ebf;exitX=0.603;exitY=1.001;exitDx=0;exitDy=0;exitPerimeter=0;" edge="1" parent="1" source="ZtMZNj4k6sN_AE68zlNE-77" target="PTGc_cxeWPIYV6TBkI2--3">
          <mxGeometry width="50" height="50" relative="1" as="geometry">
            <mxPoint x="700" y="1614.1666666666667" as="sourcePoint" />
            <mxPoint x="500" y="490" as="targetPoint" />
            <Array as="points" />
          </mxGeometry>
        </mxCell>
        <mxCell id="ZtMZNj4k6sN_AE68zlNE-76" value="" style="endArrow=none;dashed=1;html=1;rounded=0;entryX=0.5;entryY=1;entryDx=0;entryDy=0;fillColor=#dae8fc;strokeColor=#6c8ebf;exitX=0.837;exitY=1.001;exitDx=0;exitDy=0;exitPerimeter=0;" edge="1" parent="1" source="ZtMZNj4k6sN_AE68zlNE-77" target="PTGc_cxeWPIYV6TBkI2--5">
          <mxGeometry width="50" height="50" relative="1" as="geometry">
            <mxPoint x="1029.6" y="1614.1666666666667" as="sourcePoint" />
            <mxPoint x="1029.6" y="100" as="targetPoint" />
            <Array as="points">
              <mxPoint x="1030" y="860" />
            </Array>
          </mxGeometry>
        </mxCell>
        <mxCell id="ZtMZNj4k6sN_AE68zlNE-71" value="" style="endArrow=none;dashed=1;html=1;rounded=0;entryX=0.5;entryY=1;entryDx=0;entryDy=0;fillColor=#dae8fc;strokeColor=#6c8ebf;exitX=0.495;exitY=0.566;exitDx=0;exitDy=0;exitPerimeter=0;" edge="1" parent="1" source="ZtMZNj4k6sN_AE68zlNE-53" target="ZtMZNj4k6sN_AE68zlNE-3">
          <mxGeometry width="50" height="50" relative="1" as="geometry">
            <mxPoint x="80" y="1573.2432432432433" as="sourcePoint" />
            <mxPoint x="80.49999999999999" y="109.99" as="targetPoint" />
            <Array as="points" />
          </mxGeometry>
        </mxCell>
        <mxCell id="PTGc_cxeWPIYV6TBkI2--2" value="App" style="ellipse;whiteSpace=wrap;html=1;aspect=fixed;fillColor=#fff2cc;strokeColor=#d6b656;" parent="1" vertex="1">
          <mxGeometry x="30" y="20" width="80" height="80" as="geometry" />
        </mxCell>
        <mxCell id="PTGc_cxeWPIYV6TBkI2--3" value="&lt;div&gt;API&lt;/div&gt;" style="ellipse;whiteSpace=wrap;html=1;aspect=fixed;fillColor=#fff2cc;strokeColor=#d6b656;" parent="1" vertex="1">
          <mxGeometry x="660" y="20" width="80" height="80" as="geometry" />
        </mxCell>
        <mxCell id="PTGc_cxeWPIYV6TBkI2--5" value="&lt;div&gt;MongoDB&lt;/div&gt;" style="ellipse;whiteSpace=wrap;html=1;aspect=fixed;fillColor=#fff2cc;strokeColor=#d6b656;" parent="1" vertex="1">
          <mxGeometry x="985" y="20" width="80" height="80" as="geometry" />
        </mxCell>
        <mxCell id="PTGc_cxeWPIYV6TBkI2--6" value="" style="endArrow=classic;html=1;rounded=0;fillColor=#dae8fc;strokeColor=#6c8ebf;entryX=0;entryY=0.5;entryDx=0;entryDy=0;" parent="1" target="ZtMZNj4k6sN_AE68zlNE-3" edge="1">
          <mxGeometry width="50" height="50" relative="1" as="geometry">
            <mxPoint x="75" y="250" as="sourcePoint" />
            <mxPoint x="200.54054054054055" y="250" as="targetPoint" />
          </mxGeometry>
        </mxCell>
        <mxCell id="PTGc_cxeWPIYV6TBkI2--19" value="Loop" style="shape=umlFrame;whiteSpace=wrap;html=1;pointerEvents=0;fillColor=#dae8fc;strokeColor=#6c8ebf;" parent="1" vertex="1">
          <mxGeometry x="-100" y="200" width="1270" height="1840" as="geometry" />
        </mxCell>
        <mxCell id="PTGc_cxeWPIYV6TBkI2--29" value="" style="html=1;points=[[0,0,0,0,5],[0,1,0,0,-5],[1,0,0,0,5],[1,1,0,0,-5]];perimeter=orthogonalPerimeter;outlineConnect=0;targetShapes=umlLifeline;portConstraint=eastwest;newEdgeStyle={&quot;curved&quot;:0,&quot;rounded&quot;:0};fillColor=#dae8fc;strokeColor=#6c8ebf;" parent="1" vertex="1">
          <mxGeometry x="65" y="140" width="10" height="400" as="geometry" />
        </mxCell>
        <mxCell id="ZtMZNj4k6sN_AE68zlNE-3" value="AddDuaPage" style="ellipse;whiteSpace=wrap;html=1;aspect=fixed;fillColor=#fff2cc;strokeColor=#d6b656;" vertex="1" parent="1">
          <mxGeometry x="250" y="210" width="80" height="80" as="geometry" />
        </mxCell>
        <mxCell id="ZtMZNj4k6sN_AE68zlNE-4" value="add()" style="text;html=1;fillColor=none;align=center;verticalAlign=middle;whiteSpace=wrap;rounded=0;" vertex="1" parent="1">
          <mxGeometry x="144.07" y="490" width="60" height="30" as="geometry" />
        </mxCell>
        <mxCell id="ZtMZNj4k6sN_AE68zlNE-10" value="" style="endArrow=classic;html=1;rounded=0;fillColor=#dae8fc;strokeColor=#6c8ebf;exitX=1.1;exitY=0.555;exitDx=0;exitDy=0;exitPerimeter=0;dashed=1;dashPattern=8 8;" edge="1" parent="1">
          <mxGeometry width="50" height="50" relative="1" as="geometry">
            <mxPoint x="76" y="340.95000000000005" as="sourcePoint" />
            <mxPoint x="285" y="340.95000000000005" as="targetPoint" />
          </mxGeometry>
        </mxCell>
        <mxCell id="ZtMZNj4k6sN_AE68zlNE-11" value="User will be prompted to select type of Dua" style="text;html=1;fillColor=none;align=center;verticalAlign=middle;whiteSpace=wrap;rounded=0;" vertex="1" parent="1">
          <mxGeometry x="80" y="310" width="190" height="30" as="geometry" />
        </mxCell>
        <mxCell id="ZtMZNj4k6sN_AE68zlNE-12" value="" style="endArrow=classic;html=1;rounded=0;fillColor=#dae8fc;strokeColor=#6c8ebf;dashed=1;dashPattern=8 8;" edge="1" parent="1">
          <mxGeometry width="50" height="50" relative="1" as="geometry">
            <mxPoint x="285" y="450" as="sourcePoint" />
            <mxPoint x="75" y="450" as="targetPoint" />
          </mxGeometry>
        </mxCell>
        <mxCell id="ZtMZNj4k6sN_AE68zlNE-13" value="Show Valid/ Invalid Message" style="text;html=1;fillColor=none;align=center;verticalAlign=middle;whiteSpace=wrap;rounded=0;" vertex="1" parent="1">
          <mxGeometry x="85" y="420" width="190" height="30" as="geometry" />
        </mxCell>
        <mxCell id="ZtMZNj4k6sN_AE68zlNE-14" value="" style="endArrow=classic;html=1;rounded=0;fillColor=#dae8fc;strokeColor=#6c8ebf;entryX=0.187;entryY=0.545;entryDx=0;entryDy=0;entryPerimeter=0;" edge="1" parent="1">
          <mxGeometry width="50" height="50" relative="1" as="geometry">
            <mxPoint x="74.07" y="516.7" as="sourcePoint" />
            <mxPoint x="285.9399999999999" y="516.7" as="targetPoint" />
          </mxGeometry>
        </mxCell>
        <mxCell id="ZtMZNj4k6sN_AE68zlNE-15" value="add(type=&quot;Dua&quot;)" style="text;html=1;fillColor=none;align=center;verticalAlign=middle;whiteSpace=wrap;rounded=0;" vertex="1" parent="1">
          <mxGeometry x="145" y="220" width="60" height="30" as="geometry" />
        </mxCell>
        <mxCell id="ZtMZNj4k6sN_AE68zlNE-19" value="" style="html=1;points=[[0,0,0,0,5],[0,1,0,0,-5],[1,0,0,0,5],[1,1,0,0,-5]];perimeter=orthogonalPerimeter;outlineConnect=0;targetShapes=umlLifeline;portConstraint=eastwest;newEdgeStyle={&quot;curved&quot;:0,&quot;rounded&quot;:0};fillColor=#dae8fc;strokeColor=#6c8ebf;" vertex="1" parent="1">
          <mxGeometry x="485" y="1130" width="10" height="70" as="geometry" />
        </mxCell>
        <mxCell id="ZtMZNj4k6sN_AE68zlNE-20" value="" style="html=1;points=[[0,0,0,0,5],[0,1,0,0,-5],[1,0,0,0,5],[1,1,0,0,-5]];perimeter=orthogonalPerimeter;outlineConnect=0;targetShapes=umlLifeline;portConstraint=eastwest;newEdgeStyle={&quot;curved&quot;:0,&quot;rounded&quot;:0};fillColor=#dae8fc;strokeColor=#6c8ebf;" vertex="1" parent="1">
          <mxGeometry x="695" y="1100" width="10" height="240" as="geometry" />
        </mxCell>
        <mxCell id="ZtMZNj4k6sN_AE68zlNE-21" value="addNewDua(dua)" style="text;html=1;fillColor=none;align=center;verticalAlign=middle;whiteSpace=wrap;rounded=0;" vertex="1" parent="1">
          <mxGeometry x="560" y="1120" width="60" height="30" as="geometry" />
        </mxCell>
        <mxCell id="ZtMZNj4k6sN_AE68zlNE-22" value="" style="endArrow=classic;html=1;rounded=0;fillColor=#dae8fc;strokeColor=#6c8ebf;" edge="1" parent="1">
          <mxGeometry width="50" height="50" relative="1" as="geometry">
            <mxPoint x="495" y="1148.8899999999999" as="sourcePoint" />
            <mxPoint x="695" y="1148.8899999999999" as="targetPoint" />
          </mxGeometry>
        </mxCell>
        <mxCell id="ZtMZNj4k6sN_AE68zlNE-23" value="" style="html=1;points=[[0,0,0,0,5],[0,1,0,0,-5],[1,0,0,0,5],[1,1,0,0,-5]];perimeter=orthogonalPerimeter;outlineConnect=0;targetShapes=umlLifeline;portConstraint=eastwest;newEdgeStyle={&quot;curved&quot;:0,&quot;rounded&quot;:0};fillColor=#dae8fc;strokeColor=#6c8ebf;" vertex="1" parent="1">
          <mxGeometry x="1025" y="1184.8600000000001" width="10" height="150.14" as="geometry" />
        </mxCell>
        <mxCell id="ZtMZNj4k6sN_AE68zlNE-24" value="addNewDuaNode(dua)" style="text;html=1;fillColor=none;align=center;verticalAlign=middle;whiteSpace=wrap;rounded=0;" vertex="1" parent="1">
          <mxGeometry x="825" y="1185" width="60" height="30" as="geometry" />
        </mxCell>
        <mxCell id="ZtMZNj4k6sN_AE68zlNE-25" value="" style="endArrow=classic;html=1;rounded=0;fillColor=#dae8fc;strokeColor=#6c8ebf;entryX=-0.225;entryY=0.187;entryDx=0;entryDy=0;entryPerimeter=0;" edge="1" parent="1" target="ZtMZNj4k6sN_AE68zlNE-23">
          <mxGeometry width="50" height="50" relative="1" as="geometry">
            <mxPoint x="710" y="1212.93618" as="sourcePoint" />
            <mxPoint x="985" y="1265" as="targetPoint" />
          </mxGeometry>
        </mxCell>
        <mxCell id="ZtMZNj4k6sN_AE68zlNE-28" value="" style="endArrow=classic;html=1;rounded=0;fillColor=#dae8fc;strokeColor=#6c8ebf;dashed=1;dashPattern=8 8;entryX=0.956;entryY=0.829;entryDx=0;entryDy=0;entryPerimeter=0;" edge="1" parent="1">
          <mxGeometry width="50" height="50" relative="1" as="geometry">
            <mxPoint x="1025" y="1275" as="sourcePoint" />
            <mxPoint x="709.5600000000004" y="1275" as="targetPoint" />
          </mxGeometry>
        </mxCell>
        <mxCell id="ZtMZNj4k6sN_AE68zlNE-29" value="Send Success/Failure Message" style="text;html=1;fillColor=none;align=center;verticalAlign=middle;whiteSpace=wrap;rounded=0;" vertex="1" parent="1">
          <mxGeometry x="775" y="1244.93" width="190" height="30" as="geometry" />
        </mxCell>
        <mxCell id="ZtMZNj4k6sN_AE68zlNE-30" value="" style="html=1;points=[[0,0,0,0,5],[0,1,0,0,-5],[1,0,0,0,5],[1,1,0,0,-5]];perimeter=orthogonalPerimeter;outlineConnect=0;targetShapes=umlLifeline;portConstraint=eastwest;newEdgeStyle={&quot;curved&quot;:0,&quot;rounded&quot;:0};fillColor=#dae8fc;strokeColor=#6c8ebf;" vertex="1" parent="1">
          <mxGeometry x="285" y="1265" width="10" height="60" as="geometry" />
        </mxCell>
        <mxCell id="ZtMZNj4k6sN_AE68zlNE-31" value="" style="endArrow=classic;html=1;rounded=0;fillColor=#dae8fc;strokeColor=#6c8ebf;dashed=1;dashPattern=8 8;entryX=1.062;entryY=0.319;entryDx=0;entryDy=0;entryPerimeter=0;" edge="1" parent="1" source="ZtMZNj4k6sN_AE68zlNE-20" target="ZtMZNj4k6sN_AE68zlNE-30">
          <mxGeometry width="50" height="50" relative="1" as="geometry">
            <mxPoint x="700" y="1284.1399999999999" as="sourcePoint" />
            <mxPoint x="305" y="1285" as="targetPoint" />
          </mxGeometry>
        </mxCell>
        <mxCell id="ZtMZNj4k6sN_AE68zlNE-32" value="Send Success/Failure Message" style="text;html=1;fillColor=none;align=center;verticalAlign=middle;whiteSpace=wrap;rounded=0;" vertex="1" parent="1">
          <mxGeometry x="415" y="1255" width="190" height="30" as="geometry" />
        </mxCell>
        <mxCell id="ZtMZNj4k6sN_AE68zlNE-33" value="" style="html=1;points=[[0,0,0,0,5],[0,1,0,0,-5],[1,0,0,0,5],[1,1,0,0,-5]];perimeter=orthogonalPerimeter;outlineConnect=0;targetShapes=umlLifeline;portConstraint=eastwest;newEdgeStyle={&quot;curved&quot;:0,&quot;rounded&quot;:0};fillColor=#dae8fc;strokeColor=#6c8ebf;" vertex="1" parent="1">
          <mxGeometry x="65" y="1477.5" width="10" height="150" as="geometry" />
        </mxCell>
        <mxCell id="ZtMZNj4k6sN_AE68zlNE-34" value="" style="endArrow=classic;html=1;rounded=0;fillColor=#dae8fc;strokeColor=#6c8ebf;dashed=1;dashPattern=8 8;entryX=0.956;entryY=0.829;entryDx=0;entryDy=0;entryPerimeter=0;" edge="1" parent="1" source="ZtMZNj4k6sN_AE68zlNE-30">
          <mxGeometry width="50" height="50" relative="1" as="geometry">
            <mxPoint x="255" y="1305" as="sourcePoint" />
            <mxPoint x="85.0000000000004" y="1293.5700000000002" as="targetPoint" />
          </mxGeometry>
        </mxCell>
        <mxCell id="ZtMZNj4k6sN_AE68zlNE-35" value="Send Success/Failure Message" style="text;html=1;fillColor=none;align=center;verticalAlign=middle;whiteSpace=wrap;rounded=0;" vertex="1" parent="1">
          <mxGeometry x="90" y="1265" width="190" height="30" as="geometry" />
        </mxCell>
        <mxCell id="ZtMZNj4k6sN_AE68zlNE-36" value="" style="html=1;points=[[0,0,0,0,5],[0,1,0,0,-5],[1,0,0,0,5],[1,1,0,0,-5]];perimeter=orthogonalPerimeter;outlineConnect=0;targetShapes=umlLifeline;portConstraint=eastwest;newEdgeStyle={&quot;curved&quot;:0,&quot;rounded&quot;:0};fillColor=#dae8fc;strokeColor=#6c8ebf;" vertex="1" parent="1">
          <mxGeometry x="65" y="1255" width="10" height="60" as="geometry" />
        </mxCell>
        <mxCell id="ZtMZNj4k6sN_AE68zlNE-37" value="" style="html=1;points=[[0,0,0,0,5],[0,1,0,0,-5],[1,0,0,0,5],[1,1,0,0,-5]];perimeter=orthogonalPerimeter;outlineConnect=0;targetShapes=umlLifeline;portConstraint=eastwest;newEdgeStyle={&quot;curved&quot;:0,&quot;rounded&quot;:0};fillColor=#dae8fc;strokeColor=#6c8ebf;" vertex="1" parent="1">
          <mxGeometry x="285" y="1465" width="10" height="165" as="geometry" />
        </mxCell>
        <mxCell id="ZtMZNj4k6sN_AE68zlNE-38" value="" style="endArrow=classic;html=1;rounded=0;fillColor=#dae8fc;strokeColor=#6c8ebf;dashed=1;dashPattern=8 8;entryX=0.956;entryY=0.829;entryDx=0;entryDy=0;entryPerimeter=0;" edge="1" parent="1">
          <mxGeometry width="50" height="50" relative="1" as="geometry">
            <mxPoint x="287.5" y="1499" as="sourcePoint" />
            <mxPoint x="82.5000000000004" y="1498.5700000000002" as="targetPoint" />
          </mxGeometry>
        </mxCell>
        <mxCell id="ZtMZNj4k6sN_AE68zlNE-39" value="Ask the User to enter/ update the details" style="text;html=1;fillColor=none;align=center;verticalAlign=middle;whiteSpace=wrap;rounded=0;" vertex="1" parent="1">
          <mxGeometry x="87.5" y="1470" width="190" height="30" as="geometry" />
        </mxCell>
        <mxCell id="ZtMZNj4k6sN_AE68zlNE-40" value="" style="endArrow=classic;html=1;rounded=0;fillColor=#dae8fc;strokeColor=#6c8ebf;exitX=1.1;exitY=0.555;exitDx=0;exitDy=0;exitPerimeter=0;dashed=1;dashPattern=8 8;" edge="1" parent="1" target="ZtMZNj4k6sN_AE68zlNE-37">
          <mxGeometry width="50" height="50" relative="1" as="geometry">
            <mxPoint x="83" y="1567.4099999999999" as="sourcePoint" />
            <mxPoint x="295" y="1565" as="targetPoint" />
          </mxGeometry>
        </mxCell>
        <mxCell id="ZtMZNj4k6sN_AE68zlNE-41" value="User adds/updates the necessary details" style="text;html=1;fillColor=none;align=center;verticalAlign=middle;whiteSpace=wrap;rounded=0;" vertex="1" parent="1">
          <mxGeometry x="87.5" y="1537.5" width="190" height="30" as="geometry" />
        </mxCell>
        <mxCell id="ZtMZNj4k6sN_AE68zlNE-42" value="" style="html=1;points=[[0,0,0,0,5],[0,1,0,0,-5],[1,0,0,0,5],[1,1,0,0,-5]];perimeter=orthogonalPerimeter;outlineConnect=0;targetShapes=umlLifeline;portConstraint=eastwest;newEdgeStyle={&quot;curved&quot;:0,&quot;rounded&quot;:0};fillColor=#dae8fc;strokeColor=#6c8ebf;" vertex="1" parent="1">
          <mxGeometry x="485" y="1567.5" width="10" height="100" as="geometry" />
        </mxCell>
        <mxCell id="ZtMZNj4k6sN_AE68zlNE-43" value="updateDua(details)" style="text;html=1;fillColor=none;align=center;verticalAlign=middle;whiteSpace=wrap;rounded=0;" vertex="1" parent="1">
          <mxGeometry x="370" y="1575" width="60" height="30" as="geometry" />
        </mxCell>
        <mxCell id="ZtMZNj4k6sN_AE68zlNE-44" value="" style="endArrow=classic;html=1;rounded=0;fillColor=#dae8fc;strokeColor=#6c8ebf;" edge="1" parent="1" target="ZtMZNj4k6sN_AE68zlNE-42">
          <mxGeometry width="50" height="50" relative="1" as="geometry">
            <mxPoint x="300" y="1605" as="sourcePoint" />
            <mxPoint x="455" y="1605" as="targetPoint" />
          </mxGeometry>
        </mxCell>
        <mxCell id="ZtMZNj4k6sN_AE68zlNE-45" value="Loop" style="shape=umlFrame;whiteSpace=wrap;html=1;pointerEvents=0;fillColor=#dae8fc;strokeColor=#6c8ebf;" vertex="1" parent="1">
          <mxGeometry x="-50" y="560" width="1190" height="1460" as="geometry" />
        </mxCell>
        <mxCell id="ZtMZNj4k6sN_AE68zlNE-46" value="Alt" style="shape=umlFrame;whiteSpace=wrap;html=1;pointerEvents=0;fillColor=#dae8fc;strokeColor=#6c8ebf;width=90;height=30;" vertex="1" parent="1">
          <mxGeometry x="40" y="1360" width="490" height="320" as="geometry" />
        </mxCell>
        <mxCell id="ZtMZNj4k6sN_AE68zlNE-49" value="" style="group" vertex="1" connectable="0" parent="1">
          <mxGeometry x="40" y="1680" width="80" height="30" as="geometry" />
        </mxCell>
        <mxCell id="ZtMZNj4k6sN_AE68zlNE-47" value="" style="rounded=0;whiteSpace=wrap;html=1;fillColor=#dae8fc;strokeColor=#6c8ebf;" vertex="1" parent="ZtMZNj4k6sN_AE68zlNE-49">
          <mxGeometry width="80" height="30" as="geometry" />
        </mxCell>
        <mxCell id="ZtMZNj4k6sN_AE68zlNE-48" value="ELSE" style="text;html=1;strokeColor=none;fillColor=none;align=center;verticalAlign=middle;whiteSpace=wrap;rounded=0;" vertex="1" parent="ZtMZNj4k6sN_AE68zlNE-49">
          <mxGeometry x="10" width="60" height="30" as="geometry" />
        </mxCell>
        <mxCell id="ZtMZNj4k6sN_AE68zlNE-52" value="" style="shape=umlFrame;whiteSpace=wrap;html=1;pointerEvents=0;fillColor=#dae8fc;strokeColor=#6c8ebf;width=10;height=15;" vertex="1" parent="1">
          <mxGeometry x="40" y="1680" width="490" height="320" as="geometry" />
        </mxCell>
        <mxCell id="ZtMZNj4k6sN_AE68zlNE-53" value="" style="shape=umlDestroy;whiteSpace=wrap;html=1;strokeWidth=3;targetShapes=umlLifeline;fillColor=#e51400;strokeColor=#B20000;fontColor=#ffffff;" vertex="1" parent="1">
          <mxGeometry x="275" y="1930" width="30" height="30" as="geometry" />
        </mxCell>
        <mxCell id="ZtMZNj4k6sN_AE68zlNE-54" value="" style="html=1;points=[[0,0,0,0,5],[0,1,0,0,-5],[1,0,0,0,5],[1,1,0,0,-5]];perimeter=orthogonalPerimeter;outlineConnect=0;targetShapes=umlLifeline;portConstraint=eastwest;newEdgeStyle={&quot;curved&quot;:0,&quot;rounded&quot;:0};fillColor=#dae8fc;strokeColor=#6c8ebf;" vertex="1" parent="1">
          <mxGeometry x="485" y="1760" width="10" height="80" as="geometry" />
        </mxCell>
        <mxCell id="ZtMZNj4k6sN_AE68zlNE-55" value="" style="html=1;points=[[0,0,0,0,5],[0,1,0,0,-5],[1,0,0,0,5],[1,1,0,0,-5]];perimeter=orthogonalPerimeter;outlineConnect=0;targetShapes=umlLifeline;portConstraint=eastwest;newEdgeStyle={&quot;curved&quot;:0,&quot;rounded&quot;:0};fillColor=#dae8fc;strokeColor=#6c8ebf;" vertex="1" parent="1">
          <mxGeometry x="65" y="1810" width="10" height="170" as="geometry" />
        </mxCell>
        <mxCell id="ZtMZNj4k6sN_AE68zlNE-56" value="" style="endArrow=classic;html=1;rounded=0;fillColor=#dae8fc;strokeColor=#6c8ebf;" edge="1" parent="1" source="ZtMZNj4k6sN_AE68zlNE-54" target="ZtMZNj4k6sN_AE68zlNE-62">
          <mxGeometry width="50" height="50" relative="1" as="geometry">
            <mxPoint x="375" y="1779" as="sourcePoint" />
            <mxPoint x="170.0000000000004" y="1778.5700000000002" as="targetPoint" />
          </mxGeometry>
        </mxCell>
        <mxCell id="ZtMZNj4k6sN_AE68zlNE-57" value="showDetails()" style="text;html=1;fillColor=none;align=center;verticalAlign=middle;whiteSpace=wrap;rounded=0;" vertex="1" parent="1">
          <mxGeometry x="295" y="1770" width="190" height="30" as="geometry" />
        </mxCell>
        <mxCell id="ZtMZNj4k6sN_AE68zlNE-58" value="" style="group" vertex="1" connectable="0" parent="1">
          <mxGeometry x="40" y="1390" width="80" height="30" as="geometry" />
        </mxCell>
        <mxCell id="ZtMZNj4k6sN_AE68zlNE-59" value="" style="rounded=0;whiteSpace=wrap;html=1;fillColor=#dae8fc;strokeColor=#6c8ebf;" vertex="1" parent="ZtMZNj4k6sN_AE68zlNE-58">
          <mxGeometry width="80" height="30" as="geometry" />
        </mxCell>
        <mxCell id="ZtMZNj4k6sN_AE68zlNE-60" value="IF &quot;Failure&quot;" style="text;html=1;strokeColor=none;fillColor=none;align=center;verticalAlign=middle;whiteSpace=wrap;rounded=0;" vertex="1" parent="ZtMZNj4k6sN_AE68zlNE-58">
          <mxGeometry x="10" width="60" height="30" as="geometry" />
        </mxCell>
        <mxCell id="ZtMZNj4k6sN_AE68zlNE-62" value="" style="html=1;points=[[0,0,0,0,5],[0,1,0,0,-5],[1,0,0,0,5],[1,1,0,0,-5]];perimeter=orthogonalPerimeter;outlineConnect=0;targetShapes=umlLifeline;portConstraint=eastwest;newEdgeStyle={&quot;curved&quot;:0,&quot;rounded&quot;:0};fillColor=#dae8fc;strokeColor=#6c8ebf;" vertex="1" parent="1">
          <mxGeometry x="285" y="1770" width="10" height="140" as="geometry" />
        </mxCell>
        <mxCell id="ZtMZNj4k6sN_AE68zlNE-64" value="" style="endArrow=classic;html=1;rounded=0;fillColor=#dae8fc;strokeColor=#6c8ebf;dashed=1;dashPattern=8 8;entryX=0.956;entryY=0.829;entryDx=0;entryDy=0;entryPerimeter=0;" edge="1" parent="1">
          <mxGeometry width="50" height="50" relative="1" as="geometry">
            <mxPoint x="280" y="1849" as="sourcePoint" />
            <mxPoint x="75.0000000000004" y="1848.5700000000002" as="targetPoint" />
          </mxGeometry>
        </mxCell>
        <mxCell id="ZtMZNj4k6sN_AE68zlNE-65" value="show the Successfully Entered Details" style="text;html=1;fillColor=none;align=center;verticalAlign=middle;whiteSpace=wrap;rounded=0;" vertex="1" parent="1">
          <mxGeometry x="80" y="1820" width="190" height="30" as="geometry" />
        </mxCell>
        <mxCell id="ZtMZNj4k6sN_AE68zlNE-66" value="" style="endArrow=classic;html=1;rounded=0;fillColor=#dae8fc;strokeColor=#6c8ebf;dashed=1;dashPattern=8 8;" edge="1" parent="1" source="ZtMZNj4k6sN_AE68zlNE-55" target="ZtMZNj4k6sN_AE68zlNE-53">
          <mxGeometry width="50" height="50" relative="1" as="geometry">
            <mxPoint x="315" y="1970" as="sourcePoint" />
            <mxPoint x="110.0000000000004" y="1968.5700000000002" as="targetPoint" />
          </mxGeometry>
        </mxCell>
        <mxCell id="ZtMZNj4k6sN_AE68zlNE-68" value="User presses OK" style="text;html=1;fillColor=none;align=center;verticalAlign=middle;whiteSpace=wrap;rounded=0;" vertex="1" parent="1">
          <mxGeometry x="80" y="1910" width="190" height="30" as="geometry" />
        </mxCell>
        <mxCell id="ZtMZNj4k6sN_AE68zlNE-69" value="" style="shape=umlDestroy;whiteSpace=wrap;html=1;strokeWidth=3;targetShapes=umlLifeline;fillColor=#e51400;strokeColor=#B20000;fontColor=#ffffff;" vertex="1" parent="1">
          <mxGeometry x="475" y="1925" width="30" height="30" as="geometry" />
        </mxCell>
        <mxCell id="ZtMZNj4k6sN_AE68zlNE-70" value="" style="endArrow=classic;html=1;rounded=0;fillColor=#dae8fc;strokeColor=#6c8ebf;dashed=1;dashPattern=8 8;" edge="1" target="ZtMZNj4k6sN_AE68zlNE-69" parent="1">
          <mxGeometry width="50" height="50" relative="1" as="geometry">
            <mxPoint x="305" y="1942" as="sourcePoint" />
            <mxPoint x="340.0000000000004" y="1968.5700000000002" as="targetPoint" />
          </mxGeometry>
        </mxCell>
        <mxCell id="ZtMZNj4k6sN_AE68zlNE-77" value="Add Dua" style="shape=umlFrame;whiteSpace=wrap;html=1;pointerEvents=0;fillColor=#dae8fc;strokeColor=#6c8ebf;width=110;height=70;" vertex="1" parent="1">
          <mxGeometry x="-150" y="-30" width="1410" height="2110" as="geometry" />
        </mxCell>
        <mxCell id="ZtMZNj4k6sN_AE68zlNE-78" value="dispatch" style="html=1;verticalAlign=bottom;startArrow=oval;startFill=1;endArrow=block;startSize=8;curved=0;rounded=0;" edge="1" parent="1">
          <mxGeometry width="60" relative="1" as="geometry">
            <mxPoint y="180" as="sourcePoint" />
            <mxPoint x="60" y="180" as="targetPoint" />
          </mxGeometry>
        </mxCell>
        <mxCell id="ZtMZNj4k6sN_AE68zlNE-80" value="" style="html=1;points=[[0,0,0,0,5],[0,1,0,0,-5],[1,0,0,0,5],[1,1,0,0,-5]];perimeter=orthogonalPerimeter;outlineConnect=0;targetShapes=umlLifeline;portConstraint=eastwest;newEdgeStyle={&quot;curved&quot;:0,&quot;rounded&quot;:0};fillColor=#dae8fc;strokeColor=#6c8ebf;" vertex="1" parent="1">
          <mxGeometry x="285" y="320" width="10" height="210" as="geometry" />
        </mxCell>
        <mxCell id="ZtMZNj4k6sN_AE68zlNE-86" value="" style="endArrow=classic;html=1;rounded=0;fillColor=#dae8fc;strokeColor=#6c8ebf;exitX=1.1;exitY=0.555;exitDx=0;exitDy=0;exitPerimeter=0;dashed=1;dashPattern=8 8;" edge="1" parent="1">
          <mxGeometry width="50" height="50" relative="1" as="geometry">
            <mxPoint x="78" y="410.95000000000005" as="sourcePoint" />
            <mxPoint x="287" y="410.95000000000005" as="targetPoint" />
          </mxGeometry>
        </mxCell>
        <mxCell id="ZtMZNj4k6sN_AE68zlNE-87" value="User adds the necessary Details" style="text;html=1;fillColor=none;align=center;verticalAlign=middle;whiteSpace=wrap;rounded=0;" vertex="1" parent="1">
          <mxGeometry x="82" y="380" width="190" height="30" as="geometry" />
        </mxCell>
        <mxCell id="ZtMZNj4k6sN_AE68zlNE-88" value="Alt" style="shape=umlFrame;whiteSpace=wrap;html=1;pointerEvents=0;fillColor=#dae8fc;strokeColor=#6c8ebf;width=90;height=30;" vertex="1" parent="1">
          <mxGeometry x="10" y="600" width="630" height="260" as="geometry" />
        </mxCell>
        <mxCell id="ZtMZNj4k6sN_AE68zlNE-89" value="" style="shape=umlFrame;whiteSpace=wrap;html=1;pointerEvents=0;fillColor=#dae8fc;strokeColor=#6c8ebf;width=10;height=15;" vertex="1" parent="1">
          <mxGeometry x="10" y="860" width="630" height="250" as="geometry" />
        </mxCell>
        <mxCell id="ZtMZNj4k6sN_AE68zlNE-90" value="" style="group" vertex="1" connectable="0" parent="1">
          <mxGeometry x="10" y="630" width="110" height="50" as="geometry" />
        </mxCell>
        <mxCell id="ZtMZNj4k6sN_AE68zlNE-91" value="" style="rounded=0;whiteSpace=wrap;html=1;fillColor=#dae8fc;strokeColor=#6c8ebf;" vertex="1" parent="ZtMZNj4k6sN_AE68zlNE-90">
          <mxGeometry width="110" height="50" as="geometry" />
        </mxCell>
        <mxCell id="ZtMZNj4k6sN_AE68zlNE-92" value="IF &quot;type=QuranicDua&quot;" style="text;html=1;strokeColor=none;fillColor=none;align=center;verticalAlign=middle;whiteSpace=wrap;rounded=0;" vertex="1" parent="ZtMZNj4k6sN_AE68zlNE-90">
          <mxGeometry x="13.75" width="82.5" height="50" as="geometry" />
        </mxCell>
        <mxCell id="ZtMZNj4k6sN_AE68zlNE-93" value="" style="group" vertex="1" connectable="0" parent="1">
          <mxGeometry x="10" y="860" width="110" height="55" as="geometry" />
        </mxCell>
        <mxCell id="ZtMZNj4k6sN_AE68zlNE-94" value="" style="rounded=0;whiteSpace=wrap;html=1;fillColor=#dae8fc;strokeColor=#6c8ebf;" vertex="1" parent="ZtMZNj4k6sN_AE68zlNE-93">
          <mxGeometry width="110" height="55" as="geometry" />
        </mxCell>
        <mxCell id="ZtMZNj4k6sN_AE68zlNE-95" value="ELSE &quot;type=HadithDua&quot;" style="text;html=1;strokeColor=none;fillColor=none;align=center;verticalAlign=middle;whiteSpace=wrap;rounded=0;" vertex="1" parent="ZtMZNj4k6sN_AE68zlNE-93">
          <mxGeometry x="13.75" width="82.5" height="55" as="geometry" />
        </mxCell>
        <mxCell id="ZtMZNj4k6sN_AE68zlNE-96" value="Dua" style="ellipse;whiteSpace=wrap;html=1;aspect=fixed;fillColor=#fff2cc;strokeColor=#d6b656;" vertex="1" parent="1">
          <mxGeometry x="450" y="710" width="80" height="80" as="geometry" />
        </mxCell>
        <mxCell id="ZtMZNj4k6sN_AE68zlNE-99" value="" style="endArrow=classic;html=1;rounded=0;fillColor=#dae8fc;strokeColor=#6c8ebf;entryX=0;entryY=0.5;entryDx=0;entryDy=0;" edge="1" parent="1" source="ZtMZNj4k6sN_AE68zlNE-108" target="ZtMZNj4k6sN_AE68zlNE-96">
          <mxGeometry width="50" height="50" relative="1" as="geometry">
            <mxPoint x="75" y="749.47" as="sourcePoint" />
            <mxPoint x="250" y="749.47" as="targetPoint" />
          </mxGeometry>
        </mxCell>
        <mxCell id="ZtMZNj4k6sN_AE68zlNE-100" value="createDua(type=&quot;quranicDua&quot;, details)" style="text;html=1;fillColor=none;align=center;verticalAlign=middle;whiteSpace=wrap;rounded=0;" vertex="1" parent="1">
          <mxGeometry x="340" y="690" width="75" height="70" as="geometry" />
        </mxCell>
        <mxCell id="ZtMZNj4k6sN_AE68zlNE-101" value="Dua" style="ellipse;whiteSpace=wrap;html=1;aspect=fixed;fillColor=#fff2cc;strokeColor=#d6b656;" vertex="1" parent="1">
          <mxGeometry x="450" y="970" width="80" height="80" as="geometry" />
        </mxCell>
        <mxCell id="ZtMZNj4k6sN_AE68zlNE-103" value="" style="endArrow=classic;html=1;rounded=0;fillColor=#dae8fc;strokeColor=#6c8ebf;entryX=0;entryY=0.5;entryDx=0;entryDy=0;" edge="1" parent="1" source="ZtMZNj4k6sN_AE68zlNE-109" target="ZtMZNj4k6sN_AE68zlNE-101">
          <mxGeometry width="50" height="50" relative="1" as="geometry">
            <mxPoint x="75" y="1014.44" as="sourcePoint" />
            <mxPoint x="250" y="1014.44" as="targetPoint" />
          </mxGeometry>
        </mxCell>
        <mxCell id="ZtMZNj4k6sN_AE68zlNE-104" value="createDua(type=&quot;hadithDua&quot;, details)" style="text;html=1;fillColor=none;align=center;verticalAlign=middle;whiteSpace=wrap;rounded=0;" vertex="1" parent="1">
          <mxGeometry x="360" y="980" width="40" height="30" as="geometry" />
        </mxCell>
        <mxCell id="ZtMZNj4k6sN_AE68zlNE-108" value="" style="html=1;points=[[0,0,0,0,5],[0,1,0,0,-5],[1,0,0,0,5],[1,1,0,0,-5]];perimeter=orthogonalPerimeter;outlineConnect=0;targetShapes=umlLifeline;portConstraint=eastwest;newEdgeStyle={&quot;curved&quot;:0,&quot;rounded&quot;:0};fillColor=#dae8fc;strokeColor=#6c8ebf;" vertex="1" parent="1">
          <mxGeometry x="285" y="700" width="10" height="90" as="geometry" />
        </mxCell>
        <mxCell id="ZtMZNj4k6sN_AE68zlNE-109" value="" style="html=1;points=[[0,0,0,0,5],[0,1,0,0,-5],[1,0,0,0,5],[1,1,0,0,-5]];perimeter=orthogonalPerimeter;outlineConnect=0;targetShapes=umlLifeline;portConstraint=eastwest;newEdgeStyle={&quot;curved&quot;:0,&quot;rounded&quot;:0};fillColor=#dae8fc;strokeColor=#6c8ebf;" vertex="1" parent="1">
          <mxGeometry x="285" y="954.44" width="10" height="90" as="geometry" />
        </mxCell>
      </root>
    </mxGraphModel>
  </diagram>
</mxfile>
